<svg width="100%" height="100%" viewBox="0 0 28 29" fill="none" xmlns="http://www.w3.org/2000/svg">
<path d="M25.5431 20.6424C22.8157 26.8698 15.5165 29.7306 9.23994 27.0321C2.96338 24.3335 0.0862388 17.0976 2.81367 10.8701C5.5411 4.64261 12.8403 1.78184 19.1168 4.48037C25.3934 7.17891 28.2705 14.4149 25.5431 20.6424Z" fill="#252525"/>
<path d="M25.6623 22.2913C22.3412 28.0356 15.1265 30.5105 8.86246 27.8173C2.59581 25.123 -0.507875 18.2067 1.46289 11.8775C1.55354 11.5864 1.88115 11.4455 2.16282 11.5667L25.4138 21.5723C25.6954 21.6936 25.8152 22.0269 25.6623 22.2913Z" fill="#F8F8F8"/>
<path fill-rule="evenodd" clip-rule="evenodd" d="M25.1906 22.05C21.9973 27.55 15.08 29.9169 9.07386 27.3346C3.06521 24.7513 0.0850335 18.1241 1.96284 12.0543L25.1906 22.05ZM8.86246 27.8173C15.1265 30.5105 22.3412 28.0356 25.6623 22.2913C25.8152 22.0269 25.6954 21.6936 25.4138 21.5723L2.16282 11.5667C1.88115 11.4455 1.55354 11.5864 1.46289 11.8775C-0.507875 18.2067 2.59581 25.123 8.86246 27.8173Z" fill="#252525"/>
<path d="M26.8577 19.6386C28.8234 13.3116 25.7195 6.40033 19.4555 3.70717C13.1888 1.0129 5.97051 3.4914 2.65124 9.24081C2.49856 9.50528 2.6185 9.83858 2.90024 9.9596L26.158 19.9498C26.4397 20.0709 26.7672 19.9298 26.8577 19.6386Z" fill="#FF4C41"/>
<path fill-rule="evenodd" clip-rule="evenodd" d="M26.3576 19.4621C28.2306 13.3944 25.2503 6.77214 19.2441 4.18985C13.2354 1.6065 6.31464 3.97685 3.12307 9.48183L26.3576 19.4621ZM19.4555 3.70717C25.7195 6.40033 28.8234 13.3116 26.8577 19.6386C26.7672 19.9298 26.4397 20.0709 26.158 19.9498L2.90024 9.9596C2.6185 9.83858 2.49856 9.50528 2.65124 9.24081C5.97051 3.4914 13.1888 1.0129 19.4555 3.70717Z" fill="#252525"/>
<path d="M18.6431 17.6759C17.5716 20.1224 14.7041 21.2463 12.2383 20.1861C9.77252 19.126 8.64222 16.2833 9.71371 13.8368C10.7852 11.3903 13.6527 10.2664 16.1185 11.3265C18.5843 12.3867 19.7146 15.2294 18.6431 17.6759Z" fill="#252525"/>
<path d="M17.0195 16.9778C16.3377 18.5347 14.5129 19.2499 12.9437 18.5753C11.3746 17.9006 10.6553 16.0916 11.3372 14.5348C12.019 12.9779 13.8438 12.2627 15.413 12.9374C16.9821 13.612 17.7014 15.421 17.0195 16.9778Z" fill="#F8F8F8"/>
<path d="M16.2077 16.6287C15.7207 17.7408 14.4173 18.2516 13.2964 17.7697C12.1756 17.2879 11.6619 15.9957 12.1489 14.8837C12.6359 13.7716 13.9394 13.2608 15.0602 13.7426C16.181 14.2245 16.6948 15.5167 16.2077 16.6287Z" fill="#F8F8F8"/>
<path fill-rule="evenodd" clip-rule="evenodd" d="M13.5078 17.2871C14.36 17.6534 15.351 17.265 15.7212 16.4196C16.0915 15.5741 15.7009 14.5917 14.8488 14.2253C13.9966 13.859 13.0057 14.2473 12.6354 15.0928C12.2651 15.9383 12.6557 16.9207 13.5078 17.2871ZM13.2964 17.7697C14.4173 18.2516 15.7207 17.7408 16.2077 16.6287C16.6948 15.5167 16.181 14.2245 15.0602 13.7426C13.9394 13.2608 12.6359 13.7716 12.1489 14.8837C11.6619 15.9957 12.1756 17.2879 13.2964 17.7697Z" fill="#252525"/>
<path fill-rule="evenodd" clip-rule="evenodd" d="M8.96096 6.61276C8.96096 6.61276 12.408 5.65031 14.4254 4.70167C14.562 4.63747 14.6995 4.57897 14.8314 4.52289C15.1412 4.39121 15.4195 4.27286 15.5796 4.12512C15.9948 3.74198 14.6085 3.60622 13.981 3.58958C11.6092 3.52669 8.85716 4.40151 7.45677 6.01624C7.07476 6.45672 6.91377 6.90868 7.33727 7.05055C7.62709 7.14764 8.96096 6.61276 8.96096 6.61276ZM5.68903 7.30449C5.48547 7.53239 5.34854 7.88297 5.58478 8.07691C5.81753 8.26799 6.32507 7.8518 6.32507 7.8518C6.32507 7.8518 6.81059 7.36873 6.6099 7.15146C6.45755 6.98653 5.93723 7.02661 5.68903 7.30449ZM4.73472 8.69804C4.65525 8.60209 4.66636 8.49728 4.71025 8.38087C4.78648 8.17866 5.11351 7.9834 5.22498 8.16865C5.28333 8.26563 5.26469 8.35278 5.22298 8.45796C5.14509 8.65438 4.86969 8.86098 4.73472 8.69804Z" fill="white" fill-opacity="0.8"/>
</svg>
