<svg width="100%" height="100%" viewBox="0 0 68 26" fill="none" xmlns="http://www.w3.org/2000/svg">
<path d="M4.29657 12.8528L2.93266 13.2353L2.19172 10.0265C6.25389 8.82208 8.88537 8.48982 10.0861 9.02969C11.292 9.56326 12.0556 10.5933 12.3768 12.1199C12.7163 14.4828 11.3191 16.3015 8.18524 17.5762L8.7059 21.5327L6.75777 21.8932L4.29657 12.8528ZM7.70537 14.7607C9.24691 14.0515 9.94881 13.3141 9.81107 12.5483C9.6739 12.0982 9.43187 11.8234 9.08497 11.7237C8.74379 11.6234 8.09727 11.7174 7.14543 12.0057L7.70537 14.7607Z" fill="#FDCE29"/>
<path d="M16.5098 9.24537C17.8365 9.09957 19.0192 9.4261 20.0579 10.2249C21.096 11.0181 21.6857 12.0472 21.8272 13.3121C21.9693 14.5828 21.6219 15.7206 20.7849 16.7255C19.9473 17.7248 18.8652 18.2974 17.5385 18.4432C16.2118 18.589 15.0294 18.2653 13.9913 17.4721C12.9526 16.6733 12.3622 15.6385 12.2201 14.3679C12.0786 13.103 12.4267 11.9708 13.2643 10.9715C14.1013 9.96656 15.1831 9.39117 16.5098 9.24537ZM19.9946 12.4541C19.9672 12.727 19.8589 12.9743 19.6695 13.1961C19.4083 13.5004 19.0747 13.6749 18.6687 13.7195C18.2627 13.7642 17.8989 13.6692 17.5775 13.4346C17.2611 13.1938 17.0816 12.8833 17.0391 12.5033C16.9966 12.1232 17.1034 11.7842 17.3595 11.4862C17.6214 11.1875 17.9553 11.0159 18.3613 10.9713C18.4414 10.9625 18.5163 10.96 18.5862 10.9638C18.2539 10.8395 17.8962 10.7984 17.5131 10.8405C16.8783 10.9103 16.3595 11.1884 15.9566 11.6748C15.5588 12.1549 15.3941 12.7013 15.4626 13.3139C15.5311 13.9265 15.8125 14.4239 16.3068 14.806C16.8068 15.1874 17.3741 15.3433 18.0089 15.2735C18.6436 15.2038 19.1599 14.9288 19.5578 14.4487C19.9613 13.9679 20.1288 13.4213 20.0603 12.8086C20.0464 12.6838 20.0245 12.5657 19.9946 12.4541Z" fill="#FDCE29"/>
<path d="M20.4335 9.54629L20.2555 8.4203L23.7296 7.41835L24.2941 11.4562L27.2055 6.89855L29.9614 8.79205L26.7126 13.4385L32.5163 16.3407L32.5807 18.8573L25.5848 15.1558L26.075 19.3052L23.7132 19.849L21.9327 9.20926L20.4335 9.54629Z" fill="#FDCE29"/>
<path d="M38.5157 11.4437L40.4102 13.0098C39.5019 14.6715 38.056 15.6142 36.0723 15.8379C32.9157 16.1848 31.1613 14.9392 30.8091 12.1011C30.4843 8.99011 31.7284 7.27718 34.5412 6.96231C36.7816 6.75629 38.2098 7.56976 38.8258 9.40271L35.1235 13.0998C36.7964 13.0997 37.9272 12.5477 38.5157 11.4437ZM33.6702 12.2949L36.343 9.71863C35.3653 9.05089 34.4586 9.07014 33.623 9.77639C32.8909 10.632 32.9066 11.4715 33.6702 12.2949Z" fill="#FDCE29"/>
<path d="M39.8159 15.771L40.0653 6.35523L42.4204 5.90692L43.5186 10.2909L44.1218 4.81556L46.4303 4.26041L49.9763 17.4882L46.5767 17.4484L44.8986 10.6733L43.8694 15.1361L42.5977 11.6066L42.1471 16.1178L39.8159 15.771Z" fill="#FDCE29"/>
<path d="M52.6393 5.27485C53.966 5.12905 55.1487 5.45558 56.1874 6.25443C57.2255 7.04761 57.8153 8.07667 57.9568 9.34162C58.0989 10.6122 57.7514 11.75 56.9145 12.755C56.0769 13.7543 54.9947 14.3269 53.668 14.4727C52.3413 14.6185 51.159 14.2948 50.1209 13.5016C49.0822 12.7028 48.4918 11.668 48.3497 10.3974C48.2082 9.13246 48.5562 8.00033 49.3938 7.00102C50.2308 5.99604 51.3126 5.42065 52.6393 5.27485ZM56.1241 8.48359C56.0968 8.75648 55.9884 9.00382 55.799 9.2256C55.5378 9.52993 55.2042 9.7044 54.7982 9.74902C54.3922 9.79364 54.0285 9.69867 53.707 9.46412C53.3906 9.22327 53.2112 8.91282 53.1687 8.53276C53.1262 8.15271 53.233 7.81367 53.4891 7.51565C53.7509 7.21699 54.0848 7.04536 54.4908 7.00074C54.5709 6.99194 54.6459 6.98944 54.7158 6.99324C54.3835 6.86898 54.0258 6.8279 53.6426 6.87001C53.0079 6.93977 52.489 7.21786 52.0861 7.70428C51.6883 8.1844 51.5237 8.73077 51.5922 9.34339C51.6607 9.95602 51.9421 10.4534 52.4363 10.8355C52.9363 11.2169 53.5037 11.3728 54.1384 11.303C54.7732 11.2332 55.2895 10.9583 55.6873 10.4782C56.0909 9.99743 56.2584 9.45075 56.1899 8.83812C56.1759 8.71333 56.154 8.59515 56.1241 8.48359Z" fill="#FDCE29"/>
<path d="M58.2561 14.3474L57.4923 5.49949L56.8109 5.53993L56.6472 4.07644L59.6027 3.87223L62.3904 9.38839L62.1389 3.02503L64.4083 2.50863L65.0485 15.4528L62.5886 15.2753L59.9543 9.81115L60.4596 14.3292L58.2561 14.3474Z" fill="#FDCE29"/>
<path fill-rule="evenodd" clip-rule="evenodd" d="M6.75781 21.8933L4.29661 12.8529L2.9327 13.2354L2.19176 10.0266C6.25394 8.82217 8.88541 8.48992 10.0862 9.02979C10.804 9.3474 11.3651 9.84095 11.7694 10.5104C12.0443 10.9656 12.2468 11.5021 12.3768 12.12C12.3929 12.2319 12.4051 12.3425 12.4134 12.452C12.4544 12.3315 12.5011 12.2125 12.5534 12.095C12.5553 12.0908 12.5572 12.0865 12.5591 12.0823C12.7329 11.6954 12.968 11.3252 13.2643 10.9716C13.3392 10.8817 13.416 10.7953 13.4948 10.7122C14.2968 9.86715 15.3018 9.37822 16.5098 9.24546C17.2668 9.16227 17.977 9.23286 18.6402 9.45724C18.7436 9.49221 18.8458 9.53091 18.9469 9.57335C18.9951 9.59356 19.043 9.61462 19.0906 9.63653C19.0926 9.63746 19.0946 9.63839 19.0967 9.63933C19.1566 9.66701 19.2162 9.69603 19.2753 9.7264C19.5447 9.86473 19.8056 10.0309 20.0579 10.225C20.299 10.4092 20.5159 10.6061 20.7086 10.8157C20.7153 10.8231 20.7221 10.8305 20.7288 10.8379C20.7639 10.8765 20.7981 10.9156 20.8315 10.9551C21.3939 11.6195 21.7258 12.4052 21.8273 13.3122C21.9176 14.1199 21.8101 14.8739 21.5048 15.5743C21.3299 15.9757 21.0899 16.3595 20.785 16.7256C19.9474 17.7249 18.8652 18.2975 17.5385 18.4433C16.2118 18.5891 15.0295 18.2654 13.9914 17.4722C13.477 17.0766 13.0726 16.6232 12.7781 16.1119C12.4779 15.5907 12.2919 15.0094 12.2202 14.368C12.2116 14.2911 12.2048 14.2147 12.1998 14.1388C12.1707 14.2203 12.1387 14.301 12.104 14.3808C11.8747 14.9076 11.5231 15.3962 11.0492 15.8464C10.3561 16.505 9.40149 17.0816 8.18528 17.5763L8.70594 21.5328L6.75781 21.8933ZM9.08501 11.7238C8.74383 11.6235 8.09732 11.7175 7.14547 12.0058L7.70541 14.7608C8.2633 14.5042 8.71122 14.2438 9.04917 13.9797C9.64503 13.5141 9.89901 13.037 9.81111 12.5484C9.67394 12.0983 9.43191 11.8235 9.08501 11.7238ZM9.78659 18.4572L10.347 22.7154L5.69059 23.5771L3.26323 14.661L1.84286 15.0593L0.448 9.0186L1.76975 8.62672C3.83815 8.01347 5.59753 7.60508 7.02579 7.42475C8.38613 7.25299 9.69472 7.25147 10.6898 7.69717C11.5625 8.08409 12.2526 8.6543 12.7726 9.36818C13.7585 8.47501 14.9646 7.94529 16.3474 7.79332C17.1622 7.70378 17.9462 7.75552 18.6899 7.94765L18.5996 7.37639L24.9545 5.5436L25.201 7.30678L26.7826 4.8309L30.4958 7.38206C31.4347 6.25531 32.8102 5.68585 34.3759 5.51059L34.3905 5.50896L34.4051 5.50762C35.7194 5.38676 36.9678 5.54826 38.026 6.15102C38.2256 6.26467 38.4126 6.39071 38.5874 6.52816L38.6241 5.14196L42.6895 4.36808L42.77 3.63736L47.4834 2.50383L48.3965 5.90965C49.4638 4.70526 50.8478 4.00185 52.477 3.82281C53.4192 3.71926 54.3202 3.80465 55.1654 4.07757L55.0141 2.7248L60.4795 2.34716L60.6516 2.68776L60.6194 1.8719L65.7933 0.694538L66.6012 17.0299L61.6289 16.671L61.2014 15.7843L56.905 15.8198L56.819 14.8242C55.9535 15.4328 54.9495 15.8019 53.8305 15.9249C52.8359 16.0342 51.8871 15.934 51.001 15.6255L51.8981 18.9719L45.4186 18.896L44.9499 17.0035L44.1805 20.3401L43.2506 17.7593L38.3094 17.0244L38.3159 16.7762C37.679 17.0341 36.9849 17.2056 36.239 17.2897L36.2347 17.2902C35.464 17.3749 34.7174 17.3811 34.0139 17.286L34.1173 21.3261L27.3753 17.759L27.6912 20.4331L22.5173 21.6244L21.8643 17.7226C20.7846 18.9801 19.3709 19.7119 17.701 19.8954C16.0034 20.082 14.439 19.6583 13.0927 18.6296L13.089 18.6268C12.5453 18.2087 12.0909 17.7328 11.7299 17.2039C11.1685 17.6761 10.5151 18.0912 9.78659 18.4572ZM23.7132 19.8491L26.075 19.3053L25.5849 15.1559L32.5807 18.8574L32.5163 16.3408L26.7127 13.4386L29.9615 8.79214L27.2055 6.89864L24.2941 11.4563L23.7296 7.41845L20.2555 8.42039L20.4336 9.54638L21.9328 9.20936L23.7132 19.8491ZM29.3429 12.2406L28.8885 12.8905L29.5147 13.2037C29.4419 12.9049 29.3866 12.5962 29.3473 12.2795L29.3455 12.2655L29.3441 12.2515C29.3437 12.2478 29.3433 12.2442 29.3429 12.2406ZM31.4804 14.1867C31.5414 14.2856 31.6062 14.3802 31.6748 14.4705C31.6981 14.5012 31.7218 14.5314 31.746 14.5612C32.0693 14.9584 32.4708 15.2669 32.9504 15.4867C33.2597 15.6284 33.6016 15.7332 33.9759 15.8011C34.5879 15.912 35.2867 15.9244 36.0723 15.838C36.9368 15.7405 37.6992 15.5065 38.3594 15.1359C38.9413 14.8092 39.4439 14.3765 39.8672 13.8377L39.816 15.7711L42.1471 16.1179L42.5977 11.6067L43.8695 15.1362L44.8986 10.6734L46.5768 17.4485L49.9764 17.4883L46.4303 4.2605L44.1219 4.81565L43.5186 10.291L42.4205 5.90702L40.0654 6.35533L39.9003 12.5883L38.5158 11.4438C38.4959 11.4811 38.4754 11.5178 38.4543 11.5538C38.2647 11.8772 38.0253 12.1499 37.736 12.3719C37.1035 12.8572 36.2327 13.0999 35.1235 13.0999L38.8259 9.40281C38.7421 9.15357 38.6433 8.92318 38.5295 8.71164C37.8064 7.36748 36.477 6.7844 34.5413 6.9624C33.2864 7.10287 32.3437 7.52161 31.7133 8.2186C31.3919 8.57394 31.1517 9.0016 30.9926 9.50159C30.9338 9.68653 30.886 9.88136 30.8494 10.0861C30.7439 10.6757 30.7305 11.3474 30.8092 12.1012C30.9124 12.9332 31.1361 13.6284 31.4804 14.1867ZM34.7158 9.24984C35.2344 9.17571 35.7768 9.33201 36.3431 9.71872L33.6702 12.295C33.2151 11.8042 33.0256 11.3077 33.1019 10.8054C33.1536 10.4651 33.3273 10.1221 33.623 9.77648C33.9747 9.47925 34.339 9.30371 34.7158 9.24984ZM48.884 7.72844C48.4196 8.54044 48.2415 9.43013 48.3497 10.3975C48.4918 11.6681 49.0822 12.7029 50.1209 13.5017C50.2463 13.5975 50.3737 13.6864 50.5032 13.7684C51.4466 14.3662 52.5016 14.601 53.6681 14.4728C54.8664 14.3411 55.8652 13.8613 56.6644 13.0333C56.7501 12.9446 56.8335 12.8518 56.9145 12.7551C57.4669 12.0919 57.806 11.3708 57.932 10.5919L58.2562 14.3475L60.4597 14.3293L59.9544 9.81124L62.5887 15.2754L65.0485 15.4529L64.4083 2.50872L62.139 3.02512L62.3905 9.38849L59.6027 3.87232L56.6472 4.07653L56.8109 5.54002L57.4924 5.49958L57.7386 8.35238C57.5685 7.85427 57.312 7.40157 56.9693 6.99427C56.9445 6.96481 56.9192 6.9356 56.8935 6.90661C56.6873 6.67394 56.4519 6.45658 56.1875 6.25452C56.1491 6.22501 56.1105 6.19614 56.0718 6.16791C55.8383 5.99795 55.5977 5.85137 55.35 5.72817C55.309 5.70774 55.2677 5.68795 55.2262 5.66881C55.2242 5.66788 55.2222 5.66694 55.2201 5.66601C55.0725 5.59811 54.9224 5.53835 54.7698 5.48672C54.1065 5.26234 53.3964 5.19175 52.6394 5.27495C51.3127 5.42075 50.2309 5.99613 49.3939 7.00111C49.1968 7.2362 49.0269 7.47864 48.884 7.72844ZM51.6869 8.40401C51.5866 8.69763 51.555 9.01079 51.5922 9.34349C51.6607 9.95611 51.9421 10.4535 52.4364 10.8355C52.9364 11.217 53.5037 11.3729 54.1385 11.3031C54.2869 11.2868 54.4289 11.2593 54.5643 11.2205C54.698 11.1823 54.8253 11.1331 54.9463 11.0731C55.2273 10.9336 55.4743 10.7354 55.6874 10.4783C55.932 10.1869 56.0899 9.87122 56.161 9.53136C56.1609 9.5318 56.1611 9.53092 56.161 9.53136C56.207 9.31094 56.2168 9.07901 56.1899 8.83822C56.176 8.71342 56.1541 8.59525 56.1242 8.48368C56.1112 8.61349 56.0798 8.73752 56.0302 8.85577C55.9754 8.98611 55.8984 9.10941 55.7991 9.2257C55.5391 9.52864 55.2073 9.70291 54.8038 9.7485C54.802 9.74871 54.8001 9.74891 54.7983 9.74912C54.7967 9.74929 54.7952 9.74945 54.7937 9.74962C54.6361 9.76654 54.4849 9.7624 54.3401 9.73721C54.1135 9.69778 53.9025 9.60678 53.7071 9.46422C53.4306 9.25379 53.2588 8.99023 53.1914 8.67355C53.1858 8.64724 53.1809 8.62058 53.1768 8.59354C53.1768 8.59366 53.1768 8.59343 53.1768 8.59354C53.1737 8.57363 53.171 8.55317 53.1687 8.53286C53.1262 8.15281 53.233 7.81377 53.4891 7.51574C53.5528 7.44308 53.6208 7.37794 53.693 7.32031C53.9177 7.14109 54.1837 7.03459 54.4909 7.00083C54.5295 6.99659 54.5668 6.99382 54.603 6.99251C54.642 6.99109 54.6796 6.99136 54.7158 6.99334C54.6392 6.96469 54.5612 6.94046 54.4819 6.92065C54.4443 6.91125 54.4063 6.90284 54.368 6.89543C54.1373 6.85076 53.8955 6.84231 53.6427 6.8701C53.3932 6.89752 53.1616 6.95712 52.948 7.04891C52.9455 7.04994 52.9431 7.05098 52.9407 7.05203C52.6138 7.19384 52.329 7.41129 52.0862 7.70437C51.9044 7.92375 51.7713 8.15696 51.6869 8.40401ZM17.0618 12.6441C17.0563 12.6178 17.0514 12.5911 17.0472 12.5641C17.0472 12.5642 17.0472 12.5639 17.0472 12.5641C17.0442 12.5441 17.0415 12.5237 17.0392 12.5034C16.9967 12.1233 17.1035 11.7843 17.3596 11.4863C17.4233 11.4136 17.4913 11.3485 17.5635 11.2908C17.7882 11.1116 18.0541 11.0051 18.3613 10.9713C18.3999 10.9671 18.4373 10.9643 18.4735 10.963C18.5124 10.9616 18.55 10.9619 18.5863 10.9639C18.5097 10.9352 18.4317 10.911 18.3524 10.8912C18.3147 10.8818 18.2768 10.8734 18.2385 10.8659C18.0078 10.8213 17.766 10.8128 17.5131 10.8406C17.2636 10.868 17.0321 10.9276 16.8184 11.0194C16.816 11.0205 16.8136 11.0215 16.8112 11.0225C16.4842 11.1644 16.1994 11.3818 15.9566 11.6749C15.7749 11.8943 15.6418 12.1275 15.5573 12.3745C15.457 12.6681 15.4255 12.9813 15.4627 13.314C15.5312 13.9266 15.8126 14.424 16.3068 14.8061C16.8068 15.1875 17.3742 15.3434 18.0089 15.2736C18.1574 15.2573 18.2993 15.2298 18.4348 15.191C18.5684 15.1528 18.6958 15.1037 18.8168 15.0436C19.0978 14.9042 19.3448 14.7059 19.5578 14.4488C19.8024 14.1574 19.9603 13.8417 20.0315 13.5019C20.0314 13.5023 20.0316 13.5014 20.0315 13.5019C20.0775 13.2815 20.0873 13.0495 20.0604 12.8087C20.0464 12.6839 20.0245 12.5658 19.9946 12.4542C19.9816 12.584 19.9503 12.708 19.9006 12.8263C19.8458 12.9566 19.7688 13.0799 19.6695 13.1962C19.4095 13.4992 19.0778 13.6734 18.6742 13.719C18.6724 13.7192 18.6706 13.7194 18.6687 13.7196C18.6672 13.7198 18.6656 13.72 18.6641 13.7201C18.5065 13.7371 18.3554 13.7329 18.2106 13.7077C17.9839 13.6683 17.7729 13.5773 17.5775 13.4347M17.2084 13.6509C17.0273 13.5097 16.9507 13.3689 16.9266 13.1531C16.9042 12.9528 16.9401 12.8058 17.0618 12.6441" fill="#225FA8"/>
</svg>
